<?xml version="1.0" encoding="utf-8"?>
<!-- Generator: Adobe Illustrator 23.0.4, SVG Export Plug-In . SVG Version: 6.00 Build 0)  -->
<svg version="1.1" id="css-icon" xmlns="http://www.w3.org/2000/svg" xmlns:xlink="http://www.w3.org/1999/xlink" x="0px" y="0px"
	 viewBox="0 0 819 830.2" style="enable-background:new 0 0 819 830.2;" xml:space="preserve">
<style type="text/css">
	.css_st0{fill:#66CCCC;}
	.css_st1{fill:#1E272D;}
</style>
<g id="layer1_4_" transform="translate(-193.633,-276.3622)">
	<g id="g3013_1_" transform="translate(119,276.3622)">
		<polygon id="polygon2989_1_" class="css_st0" points="820.4,36.1 758.8,726.2 481.9,803 205.8,726.3 144.2,36.1 		"/>
		<polygon id="polygon2991_1_" class="css_st0" points="706.1,682.3 758.7,92.6 482.3,92.6 482.3,744.3 		"/>
		<polygon id="polygon2993_1_" class="css_st1" points="285.3,348.6 292.9,433.2 482.3,433.2 482.3,348.6 		"/>
		<polygon id="polygon2995_1_" class="css_st1" points="482.3,177.2 482,177.2 270,177.2 277.7,261.9 482.3,261.9 		"/>
		<polygon id="polygon2997_1_" class="css_st1" points="482.3,656.5 482.3,568.4 481.9,568.5 387.7,543 381.6,475.5 335.8,475.5 
			296.7,475.5 308.5,608.4 481.9,656.6 		"/>
		<polygon id="polygon3005_1_" class="css_st1" points="586.3,433.2 576.4,543 482,568.5 482,656.5 655.6,608.4 656.8,594.1 
			676.7,371.3 678.8,348.6 694.1,177.2 482,177.2 482,261.9 601.3,261.9 593.6,348.6 482,348.6 482,433.2 		"/>
	</g>
</g>
<g>
</g>
<g>
</g>
<g>
</g>
<g>
</g>
<g>
</g>
<g>
</g>
<g>
</g>
<g>
</g>
<g>
</g>
<g>
</g>
<g>
</g>
<g>
</g>
<g>
</g>
<g>
</g>
<g>
</g>
</svg>
