<svg width="814" height="814" viewBox="0 0 814 814" fill="none" xmlns="http://www.w3.org/2000/svg">
<path d="M374.575 0.209009C372.675 0.409009 366.575 1.10901 361.075 1.60901C282.875 9.80901 205.875 42.909 143.075 95.509C131.475 105.109 105.075 131.509 95.475 143.109C43.475 205.209 13.075 274.909 1.875 357.409C-0.625 375.709 -0.625 437.509 1.875 455.809C13.075 538.309 43.475 608.009 95.475 670.109C105.075 681.709 131.475 708.109 143.075 717.709C205.175 769.709 274.875 800.109 357.375 811.309C375.675 813.809 437.475 813.809 455.775 811.309C538.275 800.109 607.975 769.709 670.075 717.709C681.675 708.109 708.075 681.709 717.675 670.109C769.675 608.009 800.075 538.309 811.275 455.809C813.775 437.509 813.775 375.709 811.275 357.409C800.075 274.909 769.675 205.209 717.675 143.109C708.075 131.509 681.675 105.109 670.075 95.509C608.175 43.709 537.775 12.909 456.375 2.00901C447.575 0.809009 434.775 0.309009 411.075 0.109009C392.975 -0.0909911 376.475 0.00900888 374.575 0.209009ZM379.575 43.409C379.575 55.109 380.375 80.509 381.475 104.609C382.075 116.409 382.775 133.309 383.075 142.109C384.175 173.309 387.475 255.209 387.975 262.509L388.475 269.809L383.975 269.309C381.475 269.109 379.175 268.509 378.775 268.209C378.475 267.809 377.775 260.909 377.375 252.809C375.575 217.209 369.675 79.109 369.075 58.909L368.475 36.709L371.275 36.309C372.775 36.109 375.275 35.809 376.875 35.709L379.575 35.609V43.409ZM475.275 41.009C475.375 41.109 475.675 71.309 475.975 108.109C476.375 145.009 476.875 178.109 477.175 181.709C477.475 185.409 477.375 188.609 476.875 188.809C476.475 189.109 473.975 189.109 471.475 188.809L466.875 188.409L466.175 159.309C465.775 143.209 465.275 125.409 465.075 119.609C464.275 101.909 463.575 41.809 464.175 40.309C464.575 39.209 465.675 39.109 469.875 39.809C472.775 40.409 475.175 40.909 475.275 41.009ZM243.975 74.509C244.575 75.409 249.275 130.509 255.075 202.609C256.975 227.109 258.875 249.509 259.175 252.309C259.675 257.409 259.575 257.609 256.375 259.609C254.575 260.709 252.775 261.609 252.375 261.609C252.075 261.609 251.475 259.009 251.175 255.809C249.775 242.809 244.375 180.009 240.575 134.609C238.375 107.909 236.375 84.009 236.075 81.409C235.575 77.009 235.675 76.609 238.275 75.209C241.475 73.509 243.275 73.209 243.975 74.509ZM519.275 94.609C522.075 95.609 522.375 96.109 522.975 101.809C523.975 111.809 523.675 159.609 522.575 159.609C519.675 159.609 513.675 156.209 513.175 154.309C512.875 153.109 512.575 138.909 512.575 122.809C512.575 90.309 512.175 92.209 519.275 94.609ZM334.575 99.309C334.575 102.009 335.275 116.909 336.075 132.609C336.875 148.309 337.775 168.209 338.175 176.809C338.875 194.209 339.075 193.609 332.375 194.009C329.075 194.109 329.075 194.109 328.875 189.109C328.675 186.309 328.175 177.609 327.575 169.609C327.075 161.609 325.875 144.309 325.075 131.109C324.275 117.909 323.275 104.809 322.975 102.009C322.375 97.009 322.475 96.809 325.175 95.809C326.775 95.209 329.575 94.709 331.375 94.709C334.575 94.609 334.575 94.609 334.575 99.309ZM611.975 113.009L615.375 114.409L616.075 127.809C616.375 135.109 616.575 150.909 616.375 162.809L616.075 184.609L611.875 182.509L607.675 180.509L607.375 147.309C607.175 129.009 607.275 113.509 607.475 112.809C607.875 111.309 607.875 111.309 611.975 113.009ZM429.375 126.109C429.975 126.709 431.375 175.209 431.475 199.809L431.575 214.609L426.875 213.909C424.175 213.609 421.975 213.309 421.875 213.209C421.575 213.009 418.575 138.909 418.575 131.709V124.309L423.675 124.909C426.575 125.309 429.075 125.809 429.375 126.109ZM659.675 133.209C660.875 134.609 661.075 156.509 661.375 277.309C661.675 416.009 661.675 419.609 659.875 419.609C658.775 419.609 657.275 419.009 656.375 418.309C654.875 417.209 654.675 405.109 654.175 286.609C653.775 214.809 653.275 149.609 652.975 141.709L652.375 127.309L655.275 129.409C656.975 130.609 658.875 132.309 659.675 133.209ZM569.975 153.709C570.475 154.109 570.975 159.809 571.075 166.309C571.575 188.409 571.675 323.909 571.175 324.309C570.975 324.509 569.175 324.009 567.175 323.209L563.575 321.709V236.609V151.609L566.375 152.209C567.875 152.609 569.475 153.209 569.975 153.709ZM293.975 159.309C294.275 162.009 294.775 168.109 295.075 173.109C295.375 178.009 296.075 189.209 296.675 197.909C297.875 215.509 297.675 216.609 291.975 216.609C288.975 216.609 288.575 216.309 288.175 213.309C287.175 207.409 283.675 158.209 284.175 157.409C284.675 156.709 289.875 154.909 292.275 154.709C292.875 154.609 293.675 156.709 293.975 159.309ZM128.575 184.809C129.675 195.409 131.875 217.609 133.475 234.109C135.175 250.609 136.575 264.609 136.575 265.209C136.575 266.409 128.875 270.209 128.075 269.409C127.575 268.909 117.575 180.409 117.575 176.409C117.575 174.009 125.275 163.909 126.275 165.009C126.575 165.209 127.575 174.109 128.575 184.809ZM520.675 195.309L523.575 197.009L523.675 218.609C523.775 230.409 523.975 243.609 523.975 247.909C524.175 256.909 523.075 258.409 517.675 256.509L514.575 255.409V246.809C514.575 242.009 514.275 228.109 513.875 215.809L513.275 193.609H515.575C516.775 193.609 519.075 194.409 520.675 195.309ZM172.475 234.109C174.275 253.309 177.175 285.709 179.075 306.109L182.475 343.109L178.575 347.009L174.775 350.909L174.075 343.009C173.675 338.609 171.675 318.209 169.575 297.609C167.475 277.009 164.475 247.109 162.975 231.209L160.175 202.409L164.075 198.809C167.575 195.509 167.975 195.409 168.675 197.209C169.075 198.209 170.775 214.809 172.475 234.109ZM97.575 246.209C99.775 265.909 105.575 318.309 110.575 362.609C115.575 406.909 120.275 449.609 121.175 457.609C121.975 465.609 123.375 477.709 124.175 484.609C125.575 496.309 125.575 497.109 123.975 498.309C121.575 500.109 120.575 499.909 120.575 497.809C120.575 496.909 119.675 489.309 118.575 481.109C116.775 467.409 113.775 444.209 107.075 392.109C105.675 381.609 102.975 360.709 101.075 345.609C99.075 330.509 96.175 308.009 94.575 295.609C92.975 283.209 90.275 262.009 88.575 248.309C86.775 234.709 85.675 222.609 85.975 221.309C86.675 218.609 92.575 209.209 93.175 209.809C93.375 210.109 95.375 226.409 97.575 246.209ZM66.975 289.309C68.475 301.309 71.275 323.209 73.175 338.109C75.075 352.909 77.475 371.409 78.575 379.109L80.475 393.109L78.375 394.909C77.175 395.909 75.975 396.309 75.575 395.909C75.175 395.509 74.375 391.509 73.775 387.109C73.175 382.709 69.475 357.009 65.475 330.109L58.375 281.109L60.675 274.309C61.875 270.609 63.175 267.609 63.475 267.609C63.875 267.609 65.375 277.409 66.975 289.309ZM615.975 276.209C617.375 277.609 617.575 283.809 617.575 329.709V381.609H614.775C608.675 381.609 608.775 383.109 608.375 326.309L608.075 274.609H611.275C612.975 274.609 615.175 275.309 615.975 276.209ZM397.075 294.109C419.675 297.509 439.375 303.809 458.875 313.809C471.475 320.309 477.475 324.809 491.475 338.209C512.275 358.109 525.075 375.509 537.075 400.109C554.575 435.909 561.375 467.609 569.975 552.609C573.875 590.709 578.975 659.809 580.075 688.109C580.375 696.309 581.075 709.809 581.675 718.109C582.775 735.709 584.075 733.309 568.575 740.809C547.075 751.209 526.375 758.409 499.075 765.109C465.675 773.309 444.075 775.909 411.075 776.009L387.075 776.109L387.275 764.609C387.275 758.309 387.875 743.609 388.475 732.109C391.475 676.409 390.875 606.109 386.975 567.109C384.775 544.709 380.475 517.509 378.075 511.509C377.575 510.209 379.875 509.109 389.775 505.709C407.875 499.409 423.575 491.509 425.975 487.609C430.275 480.209 422.575 469.609 412.775 469.609C411.075 469.609 405.975 471.409 401.275 473.509C378.875 483.809 333.975 495.909 308.075 498.609C290.175 500.509 262.375 499.409 243.075 495.909C232.575 494.009 213.775 486.909 198.075 478.809C179.975 469.409 168.875 456.909 165.575 442.109C163.775 434.109 164.275 418.109 166.575 409.109C169.075 399.209 176.075 384.809 182.475 376.409C210.975 338.909 269.775 306.409 330.075 295.009C349.275 291.409 376.475 291.009 397.075 294.109ZM705.575 297.209C709.175 298.709 709.575 299.109 709.575 302.509C709.775 329.809 709.175 392.209 708.675 394.809C708.575 395.709 703.375 395.809 701.175 395.009C699.775 394.509 699.575 389.109 699.575 345.009C699.575 313.409 699.975 295.609 700.575 295.609C701.075 295.609 703.375 296.309 705.575 297.209ZM749.275 352.109L752.875 353.609L752.175 436.409C751.375 541.909 751.275 545.009 747.475 554.109C741.275 569.009 741.575 572.009 742.175 506.609C742.375 473.909 742.875 440.809 743.075 433.109C743.275 425.409 743.475 403.709 743.575 384.809C743.575 362.009 743.875 350.609 744.575 350.609C745.175 350.609 747.275 351.309 749.275 352.109ZM147.875 377.009C148.475 385.109 148.275 385.909 145.375 392.309L142.175 399.109L140.975 389.109C139.075 373.109 139.075 372.409 142.875 370.009C144.575 368.809 146.375 368.009 146.675 368.209C146.975 368.409 147.575 372.409 147.875 377.009ZM86.075 437.309C86.975 445.509 93.975 499.909 97.575 526.609C102.975 567.909 103.375 573.809 100.975 571.309C100.675 571.009 98.375 557.109 95.975 540.409C80.375 432.609 80.475 433.309 81.775 432.509C84.475 430.709 85.375 431.709 86.075 437.309ZM158.075 483.109C158.675 485.609 161.575 512.709 161.575 516.009C161.575 518.809 157.975 521.409 156.375 519.809C155.875 519.309 154.575 510.809 153.575 501.009C152.475 491.109 151.375 480.809 151.075 478.109L150.475 473.109L153.975 477.109C155.975 479.309 157.775 482.009 158.075 483.109ZM238.775 520.809C239.875 521.809 240.575 525.809 241.475 536.609C242.975 556.109 243.175 554.609 239.075 554.609C234.875 554.609 234.975 554.909 233.575 537.309C232.175 519.409 232.175 519.609 234.875 519.609C236.175 519.609 237.875 520.209 238.775 520.809ZM317.975 522.309C318.175 523.309 318.675 529.309 319.075 535.609C319.375 541.909 320.275 556.109 321.075 567.109C323.875 607.509 323.975 612.609 322.275 612.609C320.375 612.609 320.175 611.109 317.975 582.609C317.175 570.809 315.675 552.209 314.675 541.309C313.775 530.409 313.175 521.309 313.475 521.109C314.575 519.909 317.475 520.809 317.975 522.309ZM129.975 541.509C130.575 542.409 134.375 574.409 139.075 618.109C140.475 631.309 141.875 644.009 142.175 646.409L142.675 650.709L140.175 649.109C138.275 647.809 137.575 646.509 137.575 644.209C137.575 637.909 133.275 596.409 129.975 571.009C128.075 556.609 126.575 543.909 126.575 542.709C126.575 540.609 128.975 539.809 129.975 541.509ZM707.075 583.309L706.375 625.109L703.875 628.809C698.175 637.209 698.475 638.809 698.775 592.009L698.975 549.109L702.675 545.309C704.675 543.309 706.675 541.609 707.075 541.609C707.375 541.609 707.375 560.409 707.075 583.309ZM614.575 649.609C615.075 707.709 614.975 712.209 613.375 714.009C612.375 715.109 611.475 715.809 611.175 715.509C610.475 714.709 609.475 588.009 610.275 587.309C610.675 586.909 611.675 586.709 612.575 586.809C613.875 587.109 614.175 594.209 614.575 649.609ZM287.975 609.809C288.675 616.009 291.175 645.709 292.175 659.709C292.775 669.109 292.775 669.409 290.575 670.109C289.375 670.509 287.975 670.409 287.575 669.909C286.875 669.209 284.675 647.009 281.975 612.809L281.275 604.609H284.375C287.275 604.609 287.475 604.809 287.975 609.809ZM209.375 644.809C210.075 645.509 210.575 648.009 210.575 650.509C210.575 653.109 211.775 666.609 213.075 680.609C216.875 718.909 217.175 724.109 215.475 723.109C212.875 721.609 210.575 719.309 211.075 718.709C211.275 718.309 210.875 713.309 210.075 707.609C209.375 701.809 208.475 692.409 208.075 686.609C207.675 680.809 206.775 670.209 205.975 663.109C204.075 645.609 204.175 643.609 206.375 643.609C207.375 643.609 208.675 644.109 209.375 644.809ZM256.675 712.109C256.975 714.309 257.575 722.509 257.975 730.309C258.675 745.309 258.375 746.409 254.275 743.309C253.075 742.409 252.275 738.609 251.075 727.209C248.975 706.609 248.875 707.409 252.775 707.809C255.675 708.109 256.075 708.509 256.675 712.109Z" fill="#F95584"/>
<path d="M220.975 342.009C210.575 346.509 209.775 360.609 219.575 365.609C226.675 369.209 233.875 367.509 237.575 361.309C244.575 349.909 233.175 336.709 220.975 342.009Z" fill="#F95584"/>
<path d="M288.775 351.609C279.175 357.509 279.175 371.709 288.775 377.609C298.275 383.309 310.575 375.809 310.575 364.409C310.575 353.409 297.975 346.009 288.775 351.609Z" fill="#F95584"/>
</svg>
