<?xml version="1.0" encoding="utf-8"?>
<!-- Generator: Adobe Illustrator 23.0.4, SVG Export Plug-In . SVG Version: 6.00 Build 0)  -->
<svg version="1.1" id="Layer_2" xmlns="http://www.w3.org/2000/svg" xmlns:xlink="http://www.w3.org/1999/xlink" x="0px" y="0px"
	 viewBox="0 0 819 830.2" style="enable-background:new 0 0 819 830.2;" xml:space="preserve">
<style type="text/css">
	.st0{fill:#F95584;}
</style>
<path class="st0" d="M291.7,512.7V375.6h7.4v21.6c0.9-1,1.7-2,2.4-3c6.2-12.9,19.3-21,33.6-20.9c17-0.5,30.7,5.8,38.8,20.9
	c10.5,19,11.1,41.9,1.6,61.5c-7.5,16.9-26.2,25.3-46.1,22.2c-12.6-1.1-23.8-8.5-29.8-19.6v54.5L291.7,512.7z M299.1,424.1l1.7,16.1
	c2.9,18.3,13.8,29.2,30.8,31.2c16.5,2.7,32.6-6.6,38.4-22.2c6.6-15.8,6.1-33.6-1.3-49c-6.2-14-21-22.1-36.1-19.9
	c-14.2,1-26.1,10.9-29.8,24.7C301.2,411.2,300,417.6,299.1,424.1L299.1,424.1z M534.1,442.7c-2.3,20-19.1,35.1-39.2,35.4
	c-31.2,1.6-45.8-19.1-48.1-43c-1.6-13,0.5-26.1,6.1-38c8-16.6,25.8-26.2,44.1-23.6c17.4,1.5,31.8,13.9,35.9,30.8
	c1.6,7.5,2.8,15.1,3.5,22.8h-81.9c-1.5,21.7,10.1,39.1,26.6,43.3c20.6,5.1,38.1-3.8,44.5-23.4C527,442,529.6,441.3,534.1,442.7
	L534.1,442.7z M454.4,420.2h73.3c-0.5-23.1-14.8-39.9-34.3-40.1C471.4,379.8,455.4,395.9,454.4,420.2z M549.3,443.2h7.2
	c0.5,10.8,7.1,20.4,16.9,24.8c12.3,5.5,26.4,5.2,38.4-1c6.6-3,10.6-9.7,10.1-17c0.4-7-3.9-13.4-10.5-15.6
	c-7.9-2.9-16.3-4.6-24.4-7.1c-8.4-2.4-16.6-5.4-24.5-9c-13-6.3-13.8-31,0.9-38.8c15.3-8.6,33.9-8.9,49.4-0.8
	c9.5,5.2,14.7,15.8,13.2,26.5h-6.2c0-0.3-0.6-0.6-0.6-0.9c-0.8-19.6-17.3-25.8-35-24c-5.4,0.6-10.4,2.2-15.2,4.6
	c-5.9,2.7-9.4,8.8-8.8,15.2c0,6.4,4.1,12.1,10.1,14.3c7.7,2.8,15.9,4.7,23.9,6.9l19.3,5.1c9,3,15.2,11.2,15.7,20.6
	c1.5,10.4-3.7,20.6-13.1,25.3c-16.9,9.6-44.8,7-57.2-5.1C552.8,460.9,549.2,452.2,549.3,443.2L549.3,443.2z M720.5,405.3h-6.7
	c0-0.9-0.4-1.8-0.5-2.5c-0.2-10.4-7.7-19.2-17.9-21.2C686,379,676,379.5,667,383c-7.4,2.1-12.4,8.8-12.5,16.5
	c-0.3,7.5,4.8,14.2,12.1,16l30.8,7.9c3.3,0.8,6.6,1.8,9.8,3c9.8,3.6,16.5,12.7,16.8,23.1c0.3,10.4-5.8,20-15.5,24
	c-14.4,6.6-31,6.7-45.6,0.5c-12.1-5.2-19.7-17.5-19-30.7h6.6c2.5,11.9,10.7,21.9,21.9,26.6s24.1,3.5,34.3-3.1
	c6.3-3.3,10.1-9.9,9.7-16.9c0.3-7-4-13.3-10.7-15.5c-7.9-2.9-16.3-4.5-24.4-7.1c-8.4-2.3-16.7-5.3-24.7-8.9
	c-12.7-6.2-13.7-30.7,0.8-38.5c15.5-9,34.5-9.2,50.2-0.6C716.7,384.7,721.7,394.9,720.5,405.3L720.5,405.3z M279.5,475.7
	c-5.5,2.1-11.7-0.3-14.4-5.5L238.9,434l-3.8-5.1l-30.4,41.3c-2.6,5-8.4,7.3-13.7,5.4l39.1-52.5l-36.4-47.4c5.4-2,11.4,0.2,14.4,5.1
	l27.1,36.6l27.3-36.5c2.6-4.9,8.4-7.1,13.6-5.1l-14.1,18.7l-19.1,24.9c-2.1,1.9-2.3,5.1-0.4,7.1c0.1,0.1,0.3,0.3,0.4,0.4
	L279.5,475.7L279.5,475.7z M445.6,375.2v7.1c-20.2-1.3-37.7,14-39,34.2c-0.1,1.2-0.1,2.5-0.1,3.7c0,16.7,0,33.3,0,50v5.7h-7.2V375.6
	h7.1v20.6C415.2,381.2,428.7,375.6,445.6,375.2L445.6,375.2z M97.3,422.5l3.2-15.7c8.8-31.1,44.5-44.1,69-24.8
	c14.4,11.3,18,27.3,17.3,45.3h-81c-1.3,32.2,21.9,51.6,51.6,41.7c9.8-3.6,17.2-11.7,19.6-21.8c1.6-5.1,4.2-5.9,8.9-4.5
	c-1.6,12.5-8.8,23.6-19.6,30c-18.1,9.9-40.4,7-55.4-7.1c-7.2-8.1-11.6-18.4-12.5-29.3c0-1.8-0.6-3.5-1-5.1
	C97.4,428.3,97.3,425.4,97.3,422.5L97.3,422.5z M105.9,420.3h73.3c-0.5-23.3-15.2-39.9-34.8-40.1c-21.9-0.3-37.5,15.9-38.5,40
	L105.9,420.3z"/>
<g>
</g>
<g>
</g>
<g>
</g>
<g>
</g>
<g>
</g>
<g>
</g>
<g>
</g>
<g>
</g>
<g>
</g>
<g>
</g>
<g>
</g>
<g>
</g>
<g>
</g>
<g>
</g>
<g>
</g>
</svg>
