<?xml version="1.0" encoding="utf-8"?>
<!-- Generator: Adobe Illustrator 23.0.4, SVG Export Plug-In . SVG Version: 6.00 Build 0)  -->
<svg version="1.1" xmlns="http://www.w3.org/2000/svg" xmlns:xlink="http://www.w3.org/1999/xlink" x="0px" y="0px"
	 viewBox="0 0 819 830.2" style="enable-background:new 0 0 819 830.2;" xml:space="preserve">
<style type="text/css">
	.figma_st0{fill:#f89b0e;}
</style>
<g id="Layer_3">
	<g id="Layer_2">
	</g>
</g>
<g id="Layer_4">
	<path id="path0_fill" class="figma_st0" d="M352.4,601.2c34.3,0,62.2-27.9,62.2-62.2v-62.2h-62.2c-34.3,0-62.2,27.9-62.2,62.2
		C290.2,573.4,318,601.2,352.4,601.2z"/>
	<path id="path1_fill" class="figma_st0" d="M290.2,414.6c0-34.3,27.9-62.2,62.2-62.2h62.2v124.4h-62.2C318,476.8,290.2,449,290.2,414.6z"
		/>
	<path id="path1_fill_1_" class="figma_st0" d="M290.2,290.2c0-34.3,27.9-62.2,62.2-62.2h62.2v124.4h-62.2
		C318,352.4,290.2,324.5,290.2,290.2z"/>
	<path id="path2_fill" class="figma_st0" d="M414.6,228h62.2c34.3,0,62.2,27.9,62.2,62.2s-27.9,62.2-62.2,62.2h-62.2V228z"/>
	<path id="path3_fill" class="figma_st0" d="M539,414.6c0,34.3-27.9,62.2-62.2,62.2s-62.2-27.9-62.2-62.2s27.9-62.2,62.2-62.2
		S539,380.3,539,414.6z"/>
	<g>
	</g>
	<g>
	</g>
	<g>
	</g>
	<g>
	</g>
	<g>
	</g>
	<g>
	</g>
	<g>
	</g>
	<g>
	</g>
	<g>
	</g>
	<g>
	</g>
	<g>
	</g>
	<g>
	</g>
	<g>
	</g>
	<g>
	</g>
	<g>
	</g>
</g>
</svg>
