<svg width="554" height="146" viewBox="0 0 554 146" fill="none" xmlns="http://www.w3.org/2000/svg">
<g clip-path="url(#clip0)">
<path d="M328.662 62.5759H343.273V114.719H328.662V107.94C323.444 115.762 316.661 116.283 312.486 116.283C296.31 116.283 285.873 103.769 285.873 88.6473C285.873 73.0045 296.31 61.0116 311.442 61.0116C315.617 61.0116 323.444 61.533 328.141 69.3545V62.5759H328.662ZM301.528 88.6473C301.528 96.9902 307.268 103.247 316.139 103.247C324.488 103.247 330.75 96.9902 330.75 88.6473C330.75 80.3045 325.01 74.0473 316.139 74.0473C307.79 74.0473 301.528 80.3045 301.528 88.6473Z" fill="#66CCCC"/>
<path d="M371.972 75.0837V114.712H357.361V75.0837H351.621V62.5694H357.361V44.8408H371.972V62.5694H381.887V75.0837H371.972Z" fill="#66CCCC"/>
<path d="M416.327 75.0902C412.674 71.9616 409.543 71.4402 407.978 71.4402C404.325 71.4402 402.238 73.0045 402.238 75.6116C402.238 77.1759 402.759 78.7402 406.934 80.3045L410.587 81.3473C414.761 82.9116 421.023 84.4759 423.632 88.6473C425.198 90.733 426.241 93.8616 426.241 97.5116C426.241 102.204 424.676 106.897 420.501 110.547C416.327 114.197 411.109 116.283 404.847 116.283C393.888 116.283 388.148 111.069 384.496 107.419L392.323 98.5545C395.454 101.683 399.628 104.812 403.803 104.812C407.978 104.812 411.108 102.726 411.108 99.0759C411.108 95.9473 408.499 94.383 406.412 93.8616L403.281 92.8187C399.628 91.2545 395.454 89.6902 392.323 86.5616C389.714 83.9545 388.148 80.8259 388.148 76.6545C388.148 71.4402 390.757 67.2687 393.367 64.6616C397.541 61.533 402.759 61.0116 406.934 61.0116C410.587 61.0116 416.849 61.533 423.632 66.7473L416.327 75.0902Z" fill="#66CCCC"/>
<path d="M448.158 69.3494C453.376 62.0494 460.681 61.0065 464.856 61.0065C479.989 61.0065 490.425 72.9994 490.425 88.6422C490.425 104.285 479.989 116.278 464.334 116.278C461.203 116.278 453.376 115.757 447.636 107.935V114.714H433.547V27.1136H448.158V69.3494ZM446.592 88.6422C446.592 96.9851 452.332 103.242 461.203 103.242C469.552 103.242 475.814 96.9851 475.814 88.6422C475.814 80.2994 470.074 74.0422 461.203 74.0422C452.332 74.0422 446.592 80.2994 446.592 88.6422Z" fill="#66CCCC"/>
<path d="M514.429 106.89L489.381 62.5681H506.601L522.778 92.2895L537.389 62.5681H554.087L512.341 142.347H495.643L514.429 106.89Z" fill="#66CCCC"/>
<path d="M282.219 71.4381H267.608H245.692V86.0381H264.999C261.868 95.9453 254.563 102.724 240.996 102.724C225.863 102.724 214.905 90.2095 214.905 75.0881C214.905 59.9667 225.341 46.931 240.474 46.931C248.823 46.931 257.172 51.1024 262.39 57.881L274.392 50.0596C266.565 39.1096 254.041 32.8524 240.474 32.8524C217.514 32.8524 198.728 51.6238 198.728 75.0881C198.728 98.5524 216.47 117.324 240.474 117.324C264.478 117.324 282.219 98.5524 282.219 75.0881C282.741 73.5238 282.219 72.481 282.219 71.4381Z" fill="#66CCCC"/>
<path d="M130.89 73.0051H94.362V83.4337H119.409C115.757 99.0765 104.277 112.112 89.1438 117.327L29.1344 57.3622C35.3962 39.1122 53.1382 26.0765 73.4892 26.0765C89.1438 26.0765 103.233 33.898 112.104 45.8908L119.931 39.1122C109.495 25.0337 92.7966 15.6479 73.4892 15.6479C46.3545 15.6479 23.3944 34.9408 17.6543 60.4908L86.5347 129.319C111.582 123.062 130.89 100.119 130.89 73.0051Z" fill="#222831"/>
<path d="M16.0878 73.5229C16.0878 88.1229 21.8278 102.202 32.7861 113.152C43.7443 124.102 58.3553 129.837 72.4445 129.837L16.0878 73.5229Z" fill="#222831"/>
<path d="M73.4889 0C33.3087 0 0.43399 32.85 0.43399 73C0.43399 113.15 33.3087 146 73.4889 146C113.669 146 146.544 113.15 146.544 73C146.544 32.85 113.669 0 73.4889 0ZM32.7869 113.671C21.8286 102.721 16.0886 88.1214 16.0886 74.0429L72.9671 130.357C58.3561 129.836 43.7451 124.621 32.7869 113.671ZM86.0126 128.793L17.6541 60.4857C23.3941 34.9357 46.3542 15.6429 73.4889 15.6429C92.7963 15.6429 109.495 25.0286 119.931 39.1071L112.104 45.8857C103.233 33.8929 89.1436 26.0714 73.4889 26.0714C53.1379 26.0714 35.9178 39.1071 29.1341 57.3571L89.1436 117.321C104.276 112.107 115.756 99.0714 119.409 83.4286H94.3618V73H130.889C130.889 100.114 111.582 123.057 86.0126 128.793Z" fill="#66CCCC"/>
</g>
<defs>
<clipPath id="clip0">
<rect width="554" height="146" fill="white"/>
</clipPath>
</defs>
</svg>
