<?xml version="1.0" encoding="utf-8"?>
<!-- Generator: Adobe Illustrator 23.0.4, SVG Export Plug-In . SVG Version: 6.00 Build 0)  -->
<svg version="1.1" id="github-icon" xmlns="http://www.w3.org/2000/svg" xmlns:xlink="http://www.w3.org/1999/xlink" x="0px" y="0px"
	 viewBox="0 0 819 830.2" style="enable-background:new 0 0 819 830.2;" xml:space="preserve">
<style type="text/css">
	.git_st0{fill:#66CCCC;}
</style>
<path class="git_st0" d="M641,391.8L428.3,179.1c-12.2-12.2-32.1-12.2-44.4,0l-44.2,44.2l56,56c13-4.4,28-1.4,38.3,8.9
	c10.4,10.4,13.4,25.5,8.8,38.6l54,54c13.1-4.5,28.1-1.6,38.6,8.9c14.6,14.6,14.6,38.2,0,52.8c-14.6,14.6-38.2,14.6-52.8,0
	c-11-11-13.7-27.1-8.1-40.6l-50.4-50.4l0,132.5c3.6,1.8,6.9,4.1,9.9,7.1c14.6,14.6,14.6,38.2,0,52.8c-14.6,14.6-38.2,14.6-52.8,0
	c-14.6-14.6-14.6-38.2,0-52.8c3.6-3.6,7.8-6.3,12.2-8.1V349.1c-4.5-1.8-8.6-4.5-12.2-8.1c-11-11-13.7-27.2-8-40.8L318,245
	L172.2,390.8c-12.3,12.3-12.3,32.1,0,44.4l212.7,212.7c12.2,12.2,32.1,12.2,44.4,0L641,436.2C653.2,423.9,653.2,404,641,391.8"/>
<g>
</g>
<g>
</g>
<g>
</g>
<g>
</g>
<g>
</g>
<g>
</g>
<g>
</g>
<g>
</g>
<g>
</g>
<g>
</g>
<g>
</g>
<g>
</g>
<g>
</g>
<g>
</g>
<g>
</g>
</svg>
