<?xml version="1.0" encoding="utf-8"?>
<!-- Generator: Adobe Illustrator 22.1.0, SVG Export Plug-In . SVG Version: 6.00 Build 0)  -->
<svg version="1.1" id="Layer_1" xmlns="http://www.w3.org/2000/svg" xmlns:xlink="http://www.w3.org/1999/xlink" x="0px" y="0px"
	 viewBox="0 0 737.1 737.1" style="enable-background:new 0 0 737.1 737.1;" xml:space="preserve">
<style type="text/css">
	.st0{fill-rule:evenodd;clip-rule:evenodd;fill:#66CCCC;}
</style>
<path class="st0" d="M368.1,11.8C166.8,11.8,3.5,175,3.5,376.4c0,161.1,104.5,297.7,249.4,346c18.2,3.3,24.9-7.9,24.9-17.6
	c0-8.7-0.3-31.6-0.5-62c-101.4,22-122.8-48.9-122.8-48.9c-16.6-42.1-40.5-53.3-40.5-53.3c-33.1-22.6,2.5-22.2,2.5-22.2
	c36.6,2.6,55.8,37.6,55.8,37.6c32.5,55.7,85.3,39.6,106.1,30.3c3.3-23.6,12.7-39.6,23.1-48.7c-81-9.2-166.1-40.5-166.1-180.2
	c0-39.8,14.2-72.4,37.5-97.8c-3.7-9.2-16.3-46.3,3.6-96.5c0,0,30.6-9.8,100.3,37.4c29.1-8.1,60.3-12.1,91.3-12.3
	c31,0.1,62.2,4.2,91.3,12.3c69.6-47.2,100.2-37.4,100.2-37.4c19.9,50.2,7.4,87.3,3.6,96.5c23.4,25.5,37.5,58,37.5,97.8
	c0,140.1-85.2,170.9-166.5,179.9c13.1,11.3,24.8,33.5,24.8,67.5c0,48.7-0.4,88.1-0.4,100c0,9.8,6.6,21.1,25.1,17.5
	C628.4,674,732.8,537.5,732.8,376.4C732.8,175,569.5,11.8,368.1,11.8z"/>
<g>
</g>
<g>
</g>
<g>
</g>
<g>
</g>
<g>
</g>
<g>
</g>
<g>
</g>
<g>
</g>
<g>
</g>
<g>
</g>
<g>
</g>
<g>
</g>
<g>
</g>
<g>
</g>
<g>
</g>
</svg>
