<?xml version="1.0" encoding="utf-8"?>
<!-- Generator: Adobe Illustrator 23.0.4, SVG Export Plug-In . SVG Version: 6.00 Build 0)  -->
<svg version="1.1" xmlns="http://www.w3.org/2000/svg" xmlns:xlink="http://www.w3.org/1999/xlink" x="0px" y="0px"
	 viewBox="0 0 819 830.2" style="enable-background:new 0 0 819 830.2;" xml:space="preserve">
<style type="text/css">
	.illu_st0{fill:#f89b0e;}
</style>
<g id="Layer_3">
	<g id="Layer_2">
	</g>
	<g>
		<path class="illu_st0" d="M215,228v376.3h386V228H215z M231.1,244.1h353.8v344.2H231.1V244.1z"/>
		<path class="illu_st0" d="M349,441.1l-12.7,48.2c-0.3,1.3-0.8,1.6-2.4,1.6h-23.6c-1.6,0-1.9-0.5-1.6-2.4l45.7-159.9
			c0.8-2.9,1.3-5.5,1.6-13.3c0-1.1,0.5-1.6,1.3-1.6H391c1.1,0,1.6,0.3,1.9,1.6L444,488.9c0.3,1.3,0,2.1-1.3,2.1H416
			c-1.3,0-2.1-0.3-2.4-1.4l-13.3-48.4H349L349,441.1z M393.7,415c-4.5-17.9-15.1-56.8-19.1-75.6h-0.3c-3.4,18.8-11.9,50.7-18.7,75.6
			H393.7z M466.1,325.6c0-10.3,7.2-16.4,16.4-16.4c9.8,0,16.4,6.6,16.4,16.4c0,10.6-6.9,16.4-16.7,16.4
			C472.8,342,466.1,336.2,466.1,325.6L466.1,325.6z M468,362.1c0-1.3,0.5-1.9,1.9-1.9h25.3c1.3,0,1.9,0.5,1.9,1.9V489
			c0,1.3-0.3,1.9-1.9,1.9h-24.9c-1.6,0-2.1-0.8-2.1-2.1V362.1H468z"/>
	</g>
</g>
<g id="Layer_4">
	<g>
	</g>
	<g>
	</g>
	<g>
	</g>
	<g>
	</g>
	<g>
	</g>
	<g>
	</g>
	<g>
	</g>
	<g>
	</g>
	<g>
	</g>
	<g>
	</g>
	<g>
	</g>
	<g>
	</g>
	<g>
	</g>
	<g>
	</g>
	<g>
	</g>
</g>
</svg>
