<?xml version="1.0" encoding="utf-8"?>
<!-- Generator: Adobe Illustrator 22.1.0, SVG Export Plug-In . SVG Version: 6.00 Build 0)  -->
<svg version="1.1" id="Layer_1" xmlns="http://www.w3.org/2000/svg" xmlns:xlink="http://www.w3.org/1999/xlink" x="0px" y="0px"
	 viewBox="0 0 737.1 737.1" style="enable-background:new 0 0 737.1 737.1;" xml:space="preserve">
<style type="text/css">
	.st0{fill:#F89B0E;}
</style>
<path class="st0" d="M368,76.3c95.3,0,106.6,0.4,144.2,2.1c34.8,1.6,53.7,7.4,66.3,12.3c15.5,5.7,29.5,14.8,41,26.7
	c11.9,11.5,21,25.5,26.7,41c4.9,12.6,10.7,31.5,12.3,66.3c1.7,37.6,2.1,48.9,2.1,144.2s-0.4,106.6-2.1,144.2
	c-1.6,34.8-7.4,53.7-12.3,66.3c-12,31.1-36.6,55.7-67.7,67.7c-12.6,4.9-31.5,10.7-66.3,12.3c-37.6,1.7-48.9,2.1-144.2,2.1
	s-106.6-0.4-144.2-2.1c-34.8-1.6-53.7-7.4-66.3-12.3c-15.5-5.7-29.5-14.8-41-26.7c-11.9-11.5-21-25.5-26.7-41
	c-4.9-12.6-10.7-31.5-12.3-66.3c-1.7-37.6-2.1-48.9-2.1-144.2s0.4-106.6,2.1-144.2c1.6-34.8,7.4-53.7,12.3-66.3
	c5.7-15.5,14.8-29.5,26.7-41c11.5-11.9,25.5-21,41-26.7c12.6-4.9,31.5-10.7,66.3-12.3C261.4,76.7,272.7,76.3,368,76.3 M368,12
	c-96.9,0-109.1,0.4-147.2,2.1c-38,1.7-63.9,7.8-86.6,16.6c-23.8,9-45.4,23-63.2,41.2c-18.2,17.8-32.2,39.4-41.2,63.2
	C21,157.8,15,183.8,13.2,221.8c-1.7,38.1-2.2,50.2-2.2,147.2s0.4,109.1,2.2,147.2c1.7,38,7.8,63.9,16.6,86.6
	c9,23.8,23,45.4,41.2,63.2c17.8,18.2,39.4,32.2,63.2,41.2c22.7,8.8,48.7,14.9,86.6,16.6c38.1,1.7,50.2,2.1,147.2,2.1
	s109.1-0.4,147.2-2.1c38-1.7,63.9-7.8,86.6-16.6c47.9-18.5,85.9-56.4,104.4-104.4c8.8-22.7,14.9-48.7,16.6-86.6
	c1.7-38.1,2.1-50.2,2.1-147.2s-0.4-109.1-2.1-147.2c-1.7-38-7.8-63.9-16.6-86.6c-9-23.8-23-45.4-41.2-63.2
	c-17.8-18.2-39.4-32.2-63.2-41.2c-22.7-8.8-48.7-14.9-86.6-16.6C477.1,12.4,465,12,368,12L368,12L368,12z"/>
<path class="st0" d="M368,185.7c-101.2,0-183.3,82.1-183.3,183.3S266.8,552.3,368,552.3S551.3,470.2,551.3,369l0,0
	C551.3,267.7,469.3,185.7,368,185.7z M368,487.9c-65.7,0-119-53.3-119-119s53.3-119,119-119c65.7,0,119,53.3,119,119
	C487,434.7,433.8,487.9,368,487.9z"/>
<circle class="st0" cx="558.6" cy="178.4" r="42.8"/>
<g>
</g>
<g>
</g>
<g>
</g>
<g>
</g>
<g>
</g>
<g>
</g>
<g>
</g>
<g>
</g>
<g>
</g>
<g>
</g>
<g>
</g>
<g>
</g>
<g>
</g>
<g>
</g>
<g>
</g>
</svg>
