<?xml version="1.0" encoding="utf-8"?>
<!-- Generator: Adobe Illustrator 23.0.4, SVG Export Plug-In . SVG Version: 6.00 Build 0)  -->
<svg version="1.1" id="js-icon" xmlns="http://www.w3.org/2000/svg" xmlns:xlink="http://www.w3.org/1999/xlink" x="0px" y="0px"
	 viewBox="0 0 819 830.2" style="enable-background:new 0 0 819 830.2;" xml:space="preserve">
<style type="text/css">
	.js_st0{fill:#66CCCC;}
	.js_st1{fill:#1E272D;}
</style>
<rect x="72" y="80.8" class="js_st0" width="675.2" height="675.2"/>
<path class="st1" d="M525.5,636.3c13.6,22.2,31.3,38.5,62.6,38.5c26.3,0,43.1-13.1,43.1-31.3c0-21.8-17.3-29.5-46.2-42.1l-15.9-6.8
	c-45.8-19.5-76.2-43.9-76.2-95.6c0-47.6,36.3-83.8,92.9-83.8c40.3,0,69.3,14,90.2,50.8l-49.4,31.7c-10.9-19.5-22.6-27.2-40.8-27.2
	c-18.6,0-30.4,11.8-30.4,27.2c0,19,11.8,26.7,39,38.5l15.9,6.8c53.9,23.1,84.3,46.7,84.3,99.7c0,57.1-44.9,88.4-105.1,88.4
	c-58.9,0-97-28.1-115.6-64.9L525.5,636.3z M301.4,641.8c10,17.7,19,32.6,40.8,32.6c20.8,0,34-8.2,34-39.9V418.8h63.4v216.6
	c0,65.7-38.5,95.6-94.7,95.6c-50.8,0-80.2-26.3-95.2-58L301.4,641.8z"/>
<g>
</g>
<g>
</g>
<g>
</g>
<g>
</g>
<g>
</g>
<g>
</g>
<g>
</g>
<g>
</g>
<g>
</g>
<g>
</g>
<g>
</g>
<g>
</g>
<g>
</g>
<g>
</g>
<g>
</g>
</svg>
