<svg width="676" height="676" viewBox="0 0 676 676" fill="none" xmlns="http://www.w3.org/2000/svg">
<path d="M675.2 0.799988H0V676H675.2V0.799988Z" fill="#66CCCC"/>
<path d="M453.5 556.3C467.1 578.5 484.8 594.8 516.1 594.8C542.4 594.8 559.2 581.7 559.2 563.5C559.2 541.7 541.9 534 513 521.4L497.1 514.6C451.3 495.1 420.9 470.7 420.9 419C420.9 371.4 457.2 335.2 513.8 335.2C554.1 335.2 583.1 349.2 604 386L554.6 417.7C543.7 398.2 532 390.5 513.8 390.5C495.2 390.5 483.4 402.3 483.4 417.7C483.4 436.7 495.2 444.4 522.4 456.2L538.3 463C592.2 486.1 622.6 509.7 622.6 562.7C622.6 619.8 577.7 651.1 517.5 651.1C458.6 651.1 420.5 623 401.9 586.2L453.5 556.3ZM229.4 561.8C239.4 579.5 248.4 594.4 270.2 594.4C291 594.4 304.2 586.2 304.2 554.5V338.8H367.6V555.4C367.6 621.1 329.1 651 272.9 651C222.1 651 192.7 624.7 177.7 593L229.4 561.8Z" fill="#222831"/>
</svg>
