<?xml version="1.0" encoding="utf-8"?>
<!-- Generator: Adobe Illustrator 22.1.0, SVG Export Plug-In . SVG Version: 6.00 Build 0)  -->
<svg version="1.1" id="Layer_1" xmlns="http://www.w3.org/2000/svg" xmlns:xlink="http://www.w3.org/1999/xlink" x="0px" y="0px"
	 viewBox="0 0 737.1 737.1" style="enable-background:new 0 0 737.1 737.1;" xml:space="preserve">
<style type="text/css">
	.st0{fill:#F95584;}
</style>
<g>
	<g>
		<g>
			<path class="st0" d="M675.8,7.8H61.4C32,7.8,8.2,31.1,8.2,59.8v617.1c0,28.7,23.8,52,53.2,52h614.5c29.4,0,53.4-23.3,53.4-52
				V59.8C729.3,31.1,705.2,7.8,675.8,7.8z M222.1,622.3H115V278.2h107.1V622.3z M168.6,231.1c-34.4,0-62-27.8-62-62
				c0-34.2,27.7-62,62-62c34.2,0,62,27.8,62,62C230.6,203.3,202.8,231.1,168.6,231.1z M622.6,622.3H515.7V455
				c0-39.9-0.8-91.2-55.6-91.2c-55.7,0-64.2,43.5-64.2,88.4v170.2H289.2V278.2h102.5v47h1.5c14.3-27.1,49.2-55.6,101.2-55.6
				c108.2,0,128.2,71.3,128.2,163.9V622.3z"/>
		</g>
	</g>
</g>
<g>
</g>
<g>
</g>
<g>
</g>
<g>
</g>
<g>
</g>
<g>
</g>
<g>
</g>
<g>
</g>
<g>
</g>
<g>
</g>
<g>
</g>
<g>
</g>
<g>
</g>
<g>
</g>
<g>
</g>
</svg>
