<?xml version="1.0" encoding="utf-8"?>
<!-- Generator: Adobe Illustrator 23.0.4, SVG Export Plug-In . SVG Version: 6.00 Build 0)  -->
<svg version="1.1" id="css-icon" xmlns="http://www.w3.org/2000/svg" xmlns:xlink="http://www.w3.org/1999/xlink" x="0px" y="0px"
	 viewBox="0 0 197 438" style="enable-background:new 0 0 197 438;" xml:space="preserve">
<path d="M192.77 174.74C169.77 73.23 115.41 39.85 109.56 27.1C103.14 18.1 96.67 2.10001 96.67 2.10001C96.56 1.83001 96.39 1.35001 96.19 0.890015C95.53 9.89001 95.19 13.36 86.68 22.43C73.51 32.73 5.93 89.43 0.430001 204.76C-4.7 312.32 78.13 376.42 89.36 384.59L90.63 385.49V385.41C90.7 385.95 94.18 411.01 96.63 437.57H105.4C107.464 418.798 110.555 400.154 114.66 381.72L115.34 381.26C120.35 377.667 125.126 373.759 129.64 369.56L130.15 369.1C153.96 347.1 196.77 296.22 196.35 215.1C196.265 201.571 195.067 188.073 192.77 174.74V174.74ZM95.68 323.86C95.68 323.86 95.68 173 100.68 173.03C104.56 173.03 109.59 367.62 109.59 367.62C102.66 366.79 95.68 335.6 95.68 323.86Z" fill="#F95584"/>
</svg>
