<svg width="555" height="337" viewBox="0 0 555 337" fill="none" xmlns="http://www.w3.org/2000/svg">
<path d="M130.982 88.2366H235.608V96.5702H140.575V159.284H229.94V167.618H140.575V236.472H236.698V244.806H130.982V88.2366V88.2366ZM244.98 88.2366H256.098L305.359 157.091L355.71 88.2366L424.195 0.777222L311.681 164.328L369.66 244.806H358.106L305.359 171.565L252.394 244.806H241.058L299.473 164.328L244.984 88.2366H244.98ZM373.803 96.5702V88.2366H493.029V96.5702H438.103V244.802H428.51V96.5702H373.806H373.803ZM0.0935059 88.2366H12.083L177.393 336.115L109.077 244.806L10.1185 100.078L9.68282 244.806H0.0935059V88.2366V88.2366ZM492.067 233.956C490.103 233.956 488.634 232.435 488.634 230.471C488.634 228.503 490.103 226.982 492.063 226.982C494.047 226.982 495.493 228.503 495.493 230.471C495.493 232.435 494.047 233.956 492.063 233.956H492.067ZM501.487 224.781H506.622C506.693 227.568 508.725 229.438 511.708 229.438C515.043 229.438 516.933 227.429 516.933 223.658V199.788H522.157V223.681C522.157 230.471 518.24 234.38 511.753 234.38C505.668 234.38 501.491 230.587 501.491 224.781H501.487ZM528.99 224.481H534.169C534.612 227.684 537.738 229.72 542.241 229.72C546.437 229.72 549.517 227.541 549.517 224.548C549.517 221.976 547.56 220.428 543.101 219.377L538.763 218.325C532.678 216.898 529.899 213.946 529.899 208.985C529.899 202.969 534.797 198.965 542.143 198.965C548.98 198.965 553.975 202.969 554.276 208.655H549.19C548.702 205.545 545.997 203.6 542.076 203.6C537.944 203.6 535.195 205.59 535.195 208.632C535.195 211.043 536.968 212.425 541.355 213.454L545.062 214.367C551.966 215.982 554.813 218.791 554.813 223.869C554.813 230.328 549.817 234.38 541.843 234.38C534.38 234.38 529.361 230.516 528.99 224.477V224.481Z" fill="#66CCCC"/>
</svg>
