<?xml version="1.0" encoding="utf-8"?>
<!-- Generator: Adobe Illustrator 23.0.4, SVG Export Plug-In . SVG Version: 6.00 Build 0)  -->
<svg version="1.1" id="node-icon" xmlns="http://www.w3.org/2000/svg" xmlns:xlink="http://www.w3.org/1999/xlink" x="0px" y="0px"
	 viewBox="0 0 819 830.2" style="enable-background:new 0 0 819 830.2;" xml:space="preserve">
<style type="text/css">
	.node_st0{fill-rule:evenodd;clip-rule:evenodd;fill:#f95584;}
</style>
<g id="layer1_1_" transform="translate(-115.94417,-501.42131)">
	<path id="path22_1_" class="node_st0" d="M634.5,782c-0.6,0-1.2,0.1-1.7,0.4c-1,0.6-1.7,1.7-1.7,2.9v85.9c0,0.8-0.4,1.6-1.1,2
		c-0.7,0.4-1.6,0.4-2.4,0l-14-8.1c-2.1-1.2-4.6-1.2-6.7,0l-56,32.3c-2.1,1.2-3.4,3.5-3.4,5.9v64.7c0,2.4,1.3,4.6,3.4,5.8l56,32.3
		c2.1,1.2,4.6,1.2,6.7,0l56-32.3c2.1-1.2,3.4-3.4,3.4-5.8V806.9c0-2.5-1.3-4.8-3.5-5.9l-33.3-18.6C635.7,782,635.1,782,634.5,782
		L634.5,782z M274.2,862.7c-1.1,0-2.1,0.2-3,0.8l-56,32.3c-2.1,1.2-3.4,3.4-3.4,5.8l0.1,86.8c0,1.2,0.6,2.3,1.7,2.9
		c1,0.6,2.3,0.6,3.4,0l33.2-19.1c2.1-1.3,3.5-3.4,3.5-5.8v-40.5c0-2.4,1.3-4.6,3.4-5.8l14.1-8.2c1.1-0.6,2.2-0.9,3.4-0.9
		c1.2,0,2.3,0.3,3.4,0.9l14.1,8.2c2.1,1.2,3.4,3.4,3.4,5.8v40.5c0,2.4,1.4,4.6,3.5,5.8l33.2,19.1c1,0.6,2.3,0.6,3.4,0
		c1-0.6,1.7-1.7,1.7-2.9l0.1-86.8c0-2.4-1.3-4.6-3.4-5.8l-56-32.3c-0.9-0.6-2-0.7-3-0.8H274.2L274.2,862.7z M777.5,863.5
		c-1.2,0-2.3,0.3-3.4,0.9l-56,32.3c-2.1,1.2-3.4,3.4-3.4,5.8v64.7c0,2.4,1.4,4.6,3.5,5.8l55.6,31.7c2.1,1.2,4.6,1.3,6.6,0.1
		l33.7-18.7c1.1-0.6,1.8-1.7,1.8-2.9c0-1.2-0.6-2.3-1.7-2.9l-56.3-32.3c-1.1-0.6-1.8-1.8-1.8-3v-20.2c0-1.2,0.7-2.3,1.8-2.9
		l17.5-10.1c1-0.6,2.3-0.6,3.4,0l17.5,10.1c1,0.6,1.7,1.7,1.7,2.9v15.9c0,1.2,0.6,2.3,1.7,2.9c1.1,0.6,2.3,0.6,3.4,0l33.6-19.5
		c2.1-1.2,3.4-3.4,3.4-5.8v-15.6c0-2.4-1.3-4.6-3.4-5.8l-55.7-32.3C779.9,863.8,778.7,863.5,777.5,863.5L777.5,863.5z M610.1,911.8
		c0.3,0,0.6,0.1,0.9,0.2l19.2,11.1c0.5,0.3,0.9,0.9,0.9,1.5v22.2c0,0.6-0.4,1.2-0.9,1.5L611,959.3c-0.5,0.3-1.2,0.3-1.7,0
		l-19.2-11.1c-0.5-0.3-0.9-0.9-0.9-1.5v-22.2c0-0.6,0.4-1.2,0.9-1.5l19.2-11.1C609.5,911.8,609.8,911.8,610.1,911.8L610.1,911.8z"/>
	<path id="path28_1_" class="node_st0" d="M442.5,863.2c-1.2,0-2.3,0.3-3.4,0.9l-56,32.2c-2.1,1.2-3.4,3.5-3.4,5.9v64.7
		c0,2.4,1.3,4.6,3.4,5.8l56,32.3c2.1,1.2,4.6,1.2,6.7,0l56-32.3c2.1-1.2,3.4-3.4,3.4-5.8v-64.7c0-2.4-1.3-4.7-3.4-5.9l-56-32.2
		C444.8,863.4,443.6,863.2,442.5,863.2z M777.4,920.9c-0.2,0-0.5,0-0.7,0.1l-10.8,6.3c-0.4,0.2-0.7,0.7-0.7,1.1v12.3
		c0,0.5,0.3,0.9,0.7,1.1l10.8,6.2c0.4,0.2,0.8,0.2,1.2,0l10.8-6.2c0.4-0.2,0.7-0.7,0.7-1.1v-12.3c0-0.5-0.3-0.9-0.7-1.1L778,921
		C777.8,920.8,777.6,920.9,777.4,920.9z"/>
</g>
<g>
</g>
<g>
</g>
<g>
</g>
<g>
</g>
<g>
</g>
<g>
</g>
<g>
</g>
<g>
</g>
<g>
</g>
<g>
</g>
<g>
</g>
<g>
</g>
<g>
</g>
<g>
</g>
<g>
</g>
</svg>
