<?xml version="1.0" encoding="utf-8"?>
<!-- Generator: Adobe Illustrator 23.0.4, SVG Export Plug-In . SVG Version: 6.00 Build 0)  -->
<svg version="1.1" xmlns="http://www.w3.org/2000/svg" xmlns:xlink="http://www.w3.org/1999/xlink" x="0px" y="0px"
	 viewBox="0 0 819 830.2" style="enable-background:new 0 0 819 830.2;" xml:space="preserve">
<style type="text/css">
	.photoshop_st0{fill:#f89b0e;}
</style>
<g id="Layer_3">
	<g id="Layer_2">
	</g>
</g>
<g id="Layer_4">
	<path class="photoshop_st0" d="M212,228.1v379.3h389V228.1H212z M228.2,244.3h356.6v346.9H228.2V244.3z M306,316.9c0-1.1,2.3-1.9,3.6-1.9
		c10.4-0.5,25.8-0.8,41.8-0.8c44.9,0,62.4,24.6,62.4,56.2c0,41.2-29.8,58.8-66.5,58.8c-6.2,0-8.3-0.3-12.6-0.3v62.2
		c0,1.3-0.5,1.9-1.9,1.9H308c-1.3,0-1.9-0.5-1.9-1.9V316.9L306,316.9z M334.9,402.9c3.7,0.3,6.6,0.3,13.1,0.3
		c19,0,36.8-6.6,36.8-32.4c0-20.6-12.8-31-34.4-31c-6.5,0-12.6,0.3-15.6,0.5L334.9,402.9L334.9,402.9z M474.3,383.6
		c-12.8,0-17.2,6.5-17.2,11.8c0,5.8,2.9,9.9,20.1,18.8c25.4,12.3,33.4,24.2,33.4,41.5c0,25.9-19.8,39.9-46.5,39.9
		c-14.1,0-26.3-2.9-33.2-7c-1.1-0.5-1.3-1.3-1.3-2.6v-23.8c0-1.6,0.8-2.1,1.9-1.3c10.2,6.6,21.9,9.6,32.6,9.6
		c12.8,0,18.2-5.3,18.2-12.6c0-5.8-3.7-11-20.1-19.5c-23-11-32.6-22.2-32.6-40.8c0-20.9,16.4-38.3,44.7-38.3c13.9,0,23.7,2.1,29,4.5
		c1.3,0.8,1.6,2.1,1.6,3.2v22.2c0,1.3-0.8,2.1-2.4,1.6C495.3,386.4,484.8,383.6,474.3,383.6L474.3,383.6z"/>
	<g>
	</g>
	<g>
	</g>
	<g>
	</g>
	<g>
	</g>
	<g>
	</g>
	<g>
	</g>
	<g>
	</g>
	<g>
	</g>
	<g>
	</g>
	<g>
	</g>
	<g>
	</g>
	<g>
	</g>
	<g>
	</g>
	<g>
	</g>
	<g>
	</g>
</g>
</svg>
