<?xml version="1.0" encoding="utf-8"?>
<!-- Generator: Adobe Illustrator 23.0.4, SVG Export Plug-In . SVG Version: 6.00 Build 0)  -->
<svg version="1.1" id="react-icon" xmlns="http://www.w3.org/2000/svg" xmlns:xlink="http://www.w3.org/1999/xlink" x="0px" y="0px"
	 viewBox="0 0 819 830.2" style="enable-background:new 0 0 819 830.2;" xml:space="preserve">
<style type="text/css">
	.react_st0{fill:#66CCCC;}
</style>
<g>
	<path class="react_st0" d="M747,415c0-44.7-56-87.1-141.8-113.3c19.8-87.5,11-157-27.8-179.3c-8.9-5.2-19.4-7.7-30.8-7.7v30.7
		c6.3,0,11.4,1.2,15.7,3.6c18.7,10.7,26.8,51.6,20.5,104.1c-1.5,12.9-4,26.5-7,40.4c-27-6.6-56.4-11.7-87.3-15
		c-18.6-25.4-37.8-48.5-57.2-68.8c44.8-41.7,86.9-64.5,115.5-64.5v-30.7l0,0c-37.8,0-87.3,27-137.4,73.7
		c-50.1-46.5-99.6-73.2-137.4-73.2v30.7c28.5,0,70.7,22.7,115.5,64.1C368.3,230,349,253,330.7,278.4c-31.1,3.3-60.5,8.4-87.5,15.1
		c-3.2-13.8-5.5-27.1-7.2-39.9c-6.5-52.5,1.5-93.4,20.1-104.2c4.1-2.5,9.5-3.6,15.8-3.6v-30.7l0,0c-11.6,0-22,2.5-31.1,7.7
		c-38.6,22.3-47.3,91.7-27.4,178.9C128,328.2,72.3,370.4,72.3,415c0,44.7,56,87.1,141.8,113.3c-19.8,87.5-11,157,27.8,179.3
		c8.9,5.2,19.4,7.7,30.9,7.7c37.8,0,87.3-27,137.4-73.7c50.1,46.5,99.6,73.2,137.4,73.2c11.6,0,22-2.5,31.1-7.7
		c38.6-22.3,47.3-91.7,27.4-178.9C691.3,501.9,747,459.6,747,415z M567.9,323.3c-5.1,17.7-11.4,36-18.6,54.3c-5.6-11-11.6-22-18-33
		c-6.3-11-13.1-21.7-19.8-32.2C531.1,315.3,549.9,318.9,567.9,323.3z M505,469.7c-10.7,18.6-21.7,36.2-33.1,52.5
		c-20.5,1.8-41.3,2.8-62.2,2.8c-20.8,0-41.5-1-61.9-2.6c-11.4-16.4-22.6-33.8-33.3-52.3c-10.5-18-19.9-36.3-28.6-54.7
		c8.5-18.4,18.2-36.9,28.5-54.9c10.7-18.6,21.7-36.2,33.1-52.5c20.5-1.8,41.3-2.8,62.2-2.8c20.8,0,41.5,1,61.9,2.6
		c11.4,16.4,22.6,33.8,33.3,52.3c10.5,18,19.9,36.3,28.6,54.7C524.8,433.3,515.3,451.7,505,469.7z M549.4,451.9
		c7.4,18.4,13.8,36.9,19,54.7c-18,4.4-37,8.1-56.7,11c6.7-10.6,13.5-21.5,19.8-32.6C537.8,474,543.7,462.9,549.4,451.9z
		 M409.9,598.6c-12.8-13.2-25.6-27.9-38.2-44c12.4,0.6,25,1,37.8,1c12.9,0,25.7-0.3,38.2-1C435.4,570.7,422.6,585.4,409.9,598.6z
		 M307.6,517.6c-19.5-2.9-38.4-6.5-56.4-10.9c5.1-17.7,11.4-36,18.6-54.3c5.6,11,11.6,22,18,33S300.9,507.1,307.6,517.6z
		 M409.2,231.4c12.8,13.2,25.6,27.9,38.2,44c-12.4-0.6-25-1-37.8-1c-12.9,0-25.7,0.3-38.2,1C383.8,259.3,396.6,244.6,409.2,231.4z
		 M307.5,312.4c-6.7,10.6-13.5,21.5-19.8,32.6c-6.3,11-12.2,22-17.9,33c-7.4-18.4-13.8-36.9-19-54.7
		C268.8,319,287.8,315.3,307.5,312.4z M183,484.6c-48.7-20.8-80.2-48-80.2-69.6c0-21.6,31.5-49,80.2-69.6
		c11.8-5.1,24.8-9.6,38.1-13.9c7.8,27,18.2,55,30.9,83.8c-12.7,28.6-22.8,56.5-30.5,83.3C207.9,494.3,195,489.7,183,484.6z
		 M257,681.1c-18.7-10.7-26.8-51.6-20.5-104.1c1.5-12.9,4-26.5,7-40.4c27,6.6,56.4,11.7,87.3,15c18.6,25.4,37.8,48.5,57.2,68.8
		c-44.8,41.7-86.9,64.5-115.5,64.5C266.4,684.7,261.1,683.4,257,681.1z M583.2,576.3c6.5,52.5-1.5,93.4-20.1,104.2
		c-4.1,2.5-9.5,3.6-15.8,3.6c-28.5,0-70.7-22.7-115.5-64.1c19.3-20.2,38.5-43.2,56.8-68.6c31.1-3.3,60.5-8.4,87.5-15.1
		C579.2,550.2,581.7,563.5,583.2,576.3z M636.2,484.6c-11.8,5.1-24.8,9.6-38.1,13.9c-7.8-27-18.2-55-30.9-83.8
		c12.7-28.6,22.8-56.5,30.5-83.3c13.6,4.3,26.5,8.9,38.6,14c48.7,20.8,80.2,48,80.2,69.6C716.3,436.6,684.8,464,636.2,484.6z"/>
	<path class="react_st0" d="M271.9,115.1L271.9,115.1L271.9,115.1z"/>
	<circle class="react_st0" cx="409.5" cy="415" r="62.8"/>
	<path class="react_st0" d="M546.5,114.7L546.5,114.7L546.5,114.7z"/>
</g>
<g>
</g>
<g>
</g>
<g>
</g>
<g>
</g>
<g>
</g>
<g>
</g>
<g>
</g>
<g>
</g>
<g>
</g>
<g>
</g>
<g>
</g>
<g>
</g>
<g>
</g>
<g>
</g>
<g>
</g>
</svg>
