<?xml version="1.0" encoding="utf-8"?>
<!-- Generator: Adobe Illustrator 23.0.4, SVG Export Plug-In . SVG Version: 6.00 Build 0)  -->
<svg version="1.1" id="redux-icon" xmlns="http://www.w3.org/2000/svg" xmlns:xlink="http://www.w3.org/1999/xlink" x="0px" y="0px"
	 viewBox="0 0 819 830.2" style="enable-background:new 0 0 819 830.2;" xml:space="preserve">
<style type="text/css">
	.redux_st0{fill:#66CCCC;}
</style>
<g>
	<path class="redux_st0" d="M531.1,526.8c23.2-2.4,40.8-22.4,40-46.4s-20.8-43.2-44.8-43.2h-1.6c-24.8,0.8-44,21.6-43.2,46.4
		c0.8,12,5.6,22.4,12.8,29.6c-27.2,53.6-68.7,92.7-131.1,125.5c-42.4,22.4-86.3,30.4-130.3,24.8c-36-4.8-63.9-20.8-81.5-47.2
		c-25.6-39.2-28-81.5-6.4-123.9c15.2-30.4,39.2-52.8,54.4-63.9c-3.2-10.4-8-28-10.4-40.8c-115.9,83.9-103.9,197.4-68.7,251
		c26.4,40,79.9,64.7,139.1,64.7c16,0,32-1.6,48-5.6C409.6,677.8,487.1,617.1,531.1,526.8z"/>
	<path class="redux_st0" d="M671.8,427.6C611,356.5,521.5,317.3,419.2,317.3h-12.8c-7.2-14.4-22.4-24-39.2-24h-1.6
		c-24.8,0.8-44,21.6-43.2,46.4c0.8,24,20.8,43.2,44.8,43.2h1.6c17.6-0.8,32.8-12,39.2-27.2h14.4c60.7,0,118.3,17.6,170.3,52
		c40,26.4,68.7,60.7,84.7,102.3c13.6,33.6,12.8,66.3-1.6,94.3c-22.4,42.4-59.9,65.5-109.5,65.5c-32,0-62.3-9.6-78.3-16.8
		c-8.8,8-24.8,20.8-36,28.8c34.4,16,69.5,24.8,103.1,24.8c76.7,0,133.5-42.4,155.1-84.7C733.3,575.5,731.7,495.6,671.8,427.6z"/>
	<path class="redux_st0" d="M265.7,540.4c0.8,24,20.8,43.2,44.8,43.2h1.6c24.8-0.8,44-21.6,43.2-46.4c-0.8-24-20.8-43.2-44.8-43.2h-1.6
		c-1.6,0-4,0-5.6,0.8c-32.8-54.4-46.4-113.5-41.6-177.5c3.2-48,19.2-89.5,47.2-123.9c23.2-29.6,67.9-44,98.3-44.8
		c84.7-1.6,120.7,103.9,123.1,146.3c10.4,2.4,28,8,40,12c-9.6-129.5-89.5-196.6-166.3-196.6c-71.9,0-138.3,52-164.7,128.7
		c-36.8,102.3-12.8,200.6,32,278.2C267.3,522.8,264.9,531.6,265.7,540.4z"/>
</g>
<g>
</g>
<g>
</g>
<g>
</g>
<g>
</g>
<g>
</g>
<g>
</g>
<g>
</g>
<g>
</g>
<g>
</g>
<g>
</g>
<g>
</g>
<g>
</g>
<g>
</g>
<g>
</g>
<g>
</g>
</svg>
