<?xml version="1.0" encoding="utf-8"?>
<!-- Generator: Adobe Illustrator 23.0.4, SVG Export Plug-In . SVG Version: 6.00 Build 0)  -->
<svg version="1.1" id="sass-icon" xmlns="http://www.w3.org/2000/svg" xmlns:xlink="http://www.w3.org/1999/xlink" x="0px" y="0px"
	 viewBox="0 0 819 830.2" style="enable-background:new 0 0 819 830.2;" xml:space="preserve">
<style type="text/css">
	.sass_st0{fill:#66CCCC;}
</style>
<path class="sass_st0" d="M574.8,423.6c-14.6,0.1-27.3,3.6-37.9,8.8c-3.9-7.8-7.8-14.5-8.5-19.6c-0.7-5.9-1.6-9.5-0.7-16.5
	c0.9-7,5-17,5-17.8c-0.1-0.7-0.9-4.3-9.3-4.4c-8.4-0.1-15.7,1.6-16.5,3.8c-0.8,2.2-2.4,7.3-3.5,12.5c-1.5,7.7-16.8,34.9-25.6,49.2
	c-2.9-5.6-5.3-10.5-5.8-14.4c-0.7-5.9-1.6-9.5-0.7-16.5c0.9-7,5-17,5-17.8c-0.1-0.7-0.9-4.3-9.3-4.4c-8.4-0.1-15.7,1.6-16.5,3.8
	c-0.8,2.2-1.7,7.4-3.5,12.5c-1.7,5.1-22.1,50.5-27.4,62.3c-2.7,6-5.1,10.9-6.8,14.1c-1.7,3.3-0.1,0.2-0.2,0.6
	c-1.5,2.8-2.3,4.3-2.3,4.3v0.1c-1.1,2-2.4,4-2.9,4c-0.4,0-1.2-5.5,0.2-13c3-15.8,10.4-40.3,10.3-41.2c0-0.4,1.4-4.7-4.7-6.9
	c-6-2.2-8.1,1.5-8.6,1.5c-0.5,0-0.9,1.3-0.9,1.3s6.6-27.7-12.7-27.7c-12.1,0-28.7,13.1-37,25.1c-5.2,2.9-16.3,8.9-28.1,15.3
	c-4.5,2.4-9.1,5.1-13.6,7.4l-0.9-1c-23.4-24.9-66.5-42.5-64.7-76c0.7-12.2,4.9-44.3,83-83.1c63.9-31.8,115.1-23.1,124-3.7
	c12.7,27.8-27.4,79.4-93.8,86.8c-25.3,2.9-38.6-6.9-42-10.6c-3.5-3.8-4-4-5.3-3.3c-2.1,1.1-0.8,4.6,0,6.6c2,5.1,10.1,14.3,24,18.9
	c12.2,4,41.9,6.2,77.8-7.7c40.3-15.6,71.7-58.9,62.5-95c-9.4-36.8-70.5-48.9-128.2-28.4c-34.4,12.2-71.6,31.4-98.4,56.4
	c-31.8,29.7-36.9,55.7-34.8,66.5c7.4,38.5,60.4,63.5,81.6,82.1c-1.1,0.6-2,1.1-2.9,1.6c-10.6,5.2-51,26.4-61.2,48.7
	c-11.4,25.3,1.8,43.5,10.6,46c27.3,7.6,55.2-6,70.3-28.5c15-22.5,13.2-51.6,6.3-64.9l-0.2-0.5l8.3-4.9c5.4-3.2,10.7-6.1,15.3-8.7
	c-2.6,7.1-4.5,15.5-5.5,27.8c-1.1,14.4,4.7,33,12.5,40.3c3.4,3.2,7.5,3.3,10,3.3c9,0,13.1-7.4,17.6-16.3
	c5.6-10.9,10.5-23.4,10.5-23.4s-6.1,34,10.6,34c6.1,0,12.2-7.9,15-12v0.1c0,0,0.2-0.2,0.5-0.8c0.3-0.5,0.7-1,1-1.6v-0.2
	c2.4-4.2,7.9-14,16.1-30c10.5-20.7,20.7-46.7,20.7-46.7s1,6.4,4,16.8c1.8,6.2,5.7,13,8.7,19.6c-2.4,3.4-3.9,5.4-3.9,5.4l0.1,0.1
	c-2,2.6-4.2,5.4-6.4,8.2c-8.3,10-18.3,21.3-19.6,24.6c-1.6,3.8-1.2,6.7,1.8,9c2.2,1.6,6.1,2,10.3,1.6c7.5-0.5,12.7-2.4,15.3-3.5
	c4.1-1.5,8.7-3.7,13.2-6.9c8.2-6,13.1-14.6,12.7-26c-0.2-6.3-2.3-12.5-4.8-18.4c0.7-1.1,1.5-2.1,2.2-3.3
	c12.9-18.9,22.9-39.6,22.9-39.6s1,6.4,4,16.8c1.6,5.3,4.7,11.1,7.4,16.8c-12.1,9.9-19.7,21.3-22.3,28.8c-4.8,13.9-1.1,20.2,6,21.6
	c3.2,0.7,7.8-0.8,11.2-2.3c4.2-1.4,9.4-3.8,14.1-7.3c8.2-6,16-14.5,15.6-25.8c-0.2-5.2-1.6-10.4-3.5-15.3
	c10.3-4.2,23.6-6.7,40.5-4.7c36.3,4.2,43.5,26.9,42.1,36.4c-1.4,9.5-9,14.7-11.5,16.3c-2.5,1.6-3.3,2.1-3.1,3.3
	c0.3,1.7,1.5,1.6,3.7,1.3c3-0.5,19.1-7.8,19.8-25.2C633.9,447.9,612.6,423.4,574.8,423.6L574.8,423.6z M294.6,518.1
	c-12,13.1-28.9,18.1-36.1,13.9c-7.8-4.5-4.7-23.8,10-37.8c9-8.5,20.7-16.3,28.3-21.1c1.7-1.1,4.3-2.6,7.4-4.5
	c0.5-0.3,0.8-0.5,0.8-0.5c0.6-0.3,1.2-0.7,1.9-1.1C312.5,486.8,307.3,504.3,294.6,518.1L294.6,518.1z M382.4,458.4
	c-4.2,10.2-13,36.4-18.3,34.9c-4.6-1.2-7.3-21.1-0.9-40.7c3.3-9.9,10.2-21.6,14.3-26.2c6.6-7.3,13.8-9.8,15.6-6.8
	C395.2,423.6,385,452,382.4,458.4z M454.8,493c-1.8,0.9-3.4,1.6-4.2,1.1c-0.6-0.3,0.7-1.6,0.7-1.6s9.1-9.7,12.7-14.2
	c2-2.6,4.5-5.6,7.1-9.1v1C471.1,482,459.9,489.8,454.8,493L454.8,493z M510.7,480.3c-1.3-1-1.1-4,3.3-13.5c1.7-3.8,5.6-10,12.4-16
	c0.8,2.4,1.3,4.8,1.2,7C527.5,472.5,517,478,510.7,480.3z"/>
<g>
</g>
<g>
</g>
<g>
</g>
<g>
</g>
<g>
</g>
<g>
</g>
<g>
</g>
<g>
</g>
<g>
</g>
<g>
</g>
<g>
</g>
<g>
</g>
<g>
</g>
<g>
</g>
<g>
</g>
</svg>
