<?xml version="1.0" encoding="utf-8"?>
<!-- Generator: Adobe Illustrator 23.0.4, SVG Export Plug-In . SVG Version: 6.00 Build 0)  -->
<svg version="1.1" id="Layer_3" xmlns="http://www.w3.org/2000/svg" xmlns:xlink="http://www.w3.org/1999/xlink" x="0px" y="0px"
	 viewBox="0 0 819 830.2" style="enable-background:new 0 0 819 830.2;" xml:space="preserve">
<style type="text/css">
	.svelte_st0{fill:#66CCCC;}
	.svelte_st1{fill:#181C22;}
</style>
<path class="svelte_st0" d="M619.5,199.4c-54.4-77.9-161.9-101-239.7-51.5l-136.5,87c-37.3,23.5-63,61.5-70.8,104.9
	c-6.5,36.1-0.8,73.4,16.3,105.9c-11.7,17.7-19.7,37.6-23.4,58.5c-7.9,44.2,2.4,89.7,28.5,126.2c54.4,77.9,161.9,101,239.7,51.5
	l136.5-87c37.3-23.5,63-61.5,70.8-104.9c6.5-36.1,0.8-73.4-16.3-105.9c11.7-17.7,19.6-37.6,23.4-58.5
	C655.8,281.4,645.5,235.9,619.5,199.4"/>
<path class="svelte_st1" d="M366.5,637.8c-44,11.4-90.5-5.8-116.4-43.1c-15.7-22-21.9-49.3-17.1-75.9c0.8-4.3,1.9-8.6,3.3-12.7l2.6-7.8
	l7,5.1c16.2,11.9,34.2,20.9,53.4,26.7l5.1,1.5l-0.5,5.1c-0.6,7.2,1.3,14.4,5.5,20.3c7.8,11.3,21.8,16.4,35,13c3-0.8,5.8-2,8.4-3.7
	l136.5-87c6.8-4.3,11.4-11.1,12.8-19c1.4-8-0.4-16.3-5.2-22.9c-7.8-11.3-21.8-16.4-35.1-13c-3,0.8-5.8,2-8.4,3.7l-52.1,33.2
	c-8.6,5.4-17.9,9.6-27.7,12.2c-44,11.4-90.5-5.8-116.4-43.1c-15.7-22-21.9-49.3-17.1-75.9c4.7-26.1,20.1-49,42.6-63.1l136.5-87
	c8.6-5.5,17.9-9.6,27.7-12.2c44-11.4,90.5,5.8,116.4,43.1c15.7,22,21.9,49.3,17.1,75.9c-0.8,4.3-1.9,8.6-3.3,12.7l-2.6,7.8l-7-5.1
	c-16.2-11.9-34.2-20.9-53.4-26.7l-5.1-1.5l0.5-5.1c0.6-7.2-1.3-14.4-5.5-20.3c-7.8-11.3-21.8-16.4-35-13c-3,0.8-5.8,2-8.4,3.7
	l-136.5,87c-6.8,4.3-11.4,11.1-12.8,19c-1.4,8,0.4,16.3,5.2,22.9c7.8,11.3,21.8,16.4,35.1,13c3-0.8,5.8-2,8.4-3.7l52.1-33.2
	c8.6-5.5,17.9-9.6,27.7-12.2c44-11.4,90.5,5.8,116.4,43.1c15.7,22,21.9,49.3,17.1,75.9c-4.7,26.1-20.1,49-42.5,63.1l-136.5,87
	C385.6,631,376.3,635.1,366.5,637.8"/>
<g>
</g>
<g>
</g>
<g>
</g>
<g>
</g>
<g>
</g>
<g>
</g>
<g>
</g>
<g>
</g>
<g>
</g>
<g>
</g>
<g>
</g>
<g>
</g>
<g>
</g>
<g>
</g>
<g>
</g>
</svg>
