<?xml version="1.0" encoding="utf-8"?>
<!-- Generator: Adobe Illustrator 23.0.4, SVG Export Plug-In . SVG Version: 6.00 Build 0)  -->
<svg version="1.1" id="typescript-icon" xmlns="http://www.w3.org/2000/svg" xmlns:xlink="http://www.w3.org/1999/xlink" x="0px"
	 y="0px" viewBox="0 0 488 488" style="enable-background:new 0 0 488 488;" xml:space="preserve">
<style type="text/css">
	.st0{fill:#66CCCC;}
	.st1{display:none;fill:#222831;}
	.st2{fill:#222831;}
</style>
<rect x="-27.4" y="-27.4" class="st0" width="536.6" height="536.6"/>
<g>
	<polygon class="st1" points="0,244 0,488 244,488 488,488 488,244 488,0 244,0 0,0 	"/>
	<path class="st2" d="M107.9,245.6l-0.2,20h31.8h31.8v90.2V446h22.5h22.5v-90.2v-90.2H248h31.8V246c0-10.8-0.2-19.9-0.5-20.1
		c-0.2-0.3-38.9-0.5-85.7-0.4l-85.3,0.2L107.9,245.6z"/>
	<path class="st2" d="M393.8,225.1c12.4,3.1,21.8,8.6,30.5,17.6c4.5,4.8,11.2,13.6,11.7,15.6c0.2,0.6-21.1,14.9-33.9,22.9
		c-0.5,0.3-2.3-1.7-4.4-4.8c-6.3-9.1-12.9-13.1-22.9-13.8c-14.8-1-24.3,6.7-24.2,19.7c0,3.8,0.5,6,2.1,9.1c3.3,6.7,9.3,10.8,28.3,19
		c34.9,15,49.9,24.9,59.2,39c10.4,15.7,12.7,40.8,5.7,59.5c-7.7,20.3-27,34.1-54,38.7c-8.4,1.5-28.2,1.2-37.2-0.4
		c-19.6-3.5-38.2-13.2-49.7-25.9c-4.5-5-13.2-17.9-12.7-18.8c0.2-0.3,2.2-1.5,4.5-2.9c2.2-1.2,10.4-6,18.1-10.5l14-8.1l2.9,4.3
		c4.1,6.3,13.1,14.9,18.5,17.7c15.6,8.2,36.9,7,47.5-2.4c4.5-4.1,6.4-8.4,6.4-14.6c0-5.7-0.7-8.1-3.6-12.4
		c-3.8-5.4-11.5-10-33.5-19.5c-25.2-10.8-36-17.6-45.9-28.3c-5.7-6.2-11.2-16.1-13.4-24.4c-1.9-6.9-2.3-24.2-0.9-31.1
		c5.2-24.3,23.5-41.3,50-46.3C365.3,222.4,385.3,223.1,393.8,225.1z"/>
</g>
</svg>
