<?xml version="1.0" encoding="utf-8"?>
<!-- Generator: Adobe Illustrator 23.0.4, SVG Export Plug-In . SVG Version: 6.00 Build 0)  -->
<svg version="1.1" id="webpack-icon" xmlns="http://www.w3.org/2000/svg" xmlns:xlink="http://www.w3.org/1999/xlink" x="0px" y="0px"
	 viewBox="0 0 819 830.2" style="enable-background:new 0 0 819 830.2;" xml:space="preserve">
<style type="text/css">
	.webpack_st0{fill:#FFFFFF;}
	.webpack_st1{fill:#66CCCC;}
</style>
<path class="webpack_st0" d="M629.1,542.4L407,668L185,542.4V291.2l222-125.6l222,125.6"/>
<path class="webpack_st1" d="M589.4,533.7l-175,99v-77.1l109.1-60L589.4,533.7L589.4,533.7z M601.4,522.9V315.9l-64,37V486L601.4,522.9
	L601.4,522.9z M224,533.7l175,99v-77.1l-109.1-60L224,533.7z M212,522.9V315.9l64,37V486L212,522.9z M219.5,302.4L399,200.9v74.5
	l-115,63.3l-0.9,0.5C283,339.2,219.5,302.4,219.5,302.4z M593.9,302.4L414.4,200.9v74.5l115,63.2l0.9,0.5L593.9,302.4L593.9,302.4z"
	/>
<path class="webpack_st1" d="M399,538.1l-107.6-59.2V361.7L399,423.8V538.1z M414.4,538.1L522,479V361.7l-107.6,62.1V538.1z M298.7,348.2
	l108-59.4l108,59.4l-108,62.4L298.7,348.2L298.7,348.2z"/>
<g>
</g>
<g>
</g>
<g>
</g>
<g>
</g>
<g>
</g>
<g>
</g>
<g>
</g>
<g>
</g>
<g>
</g>
<g>
</g>
<g>
</g>
<g>
</g>
<g>
</g>
<g>
</g>
<g>
</g>
</svg>
