<?xml version="1.0" encoding="utf-8"?>
<!-- Generator: Adobe Illustrator 23.0.4, SVG Export Plug-In . SVG Version: 6.00 Build 0)  -->
<svg version="1.1" id="zeplin" xmlns="http://www.w3.org/2000/svg" xmlns:xlink="http://www.w3.org/1999/xlink" x="0px" y="0px"
	 viewBox="0 0 819 830.2" style="enable-background:new 0 0 819 830.2;" xml:space="preserve">
<style type="text/css">
	.zeplin_st0{fill:#f89b0e;}
</style>
<g id="Layer_3">
</g>
<path class="zeplin_st0" d="M287.4,455.1l-17.6,6.4l-0.9,52.4l61-22.3C308.9,484.7,293.6,472.3,287.4,455.1"/>
<path class="zeplin_st0" d="M296.6,399.7L235.5,422l34.3,39.6l17.6-6.4C281.2,438,285,418.6,296.6,399.7"/>
<path class="zeplin_st0" d="M399.5,324c-77.9,28.4-128.1,87.1-112.1,131.1l281.9-103C553.4,308.2,477.4,295.6,399.5,324"/>
<path class="zeplin_st0" d="M457.2,483.2c77.9-28.4,128.1-86.9,112.1-131.1l-281.9,103C303.4,499.4,379.4,511.7,457.2,483.2"/>
<path class="zeplin_st0" d="M569.3,352.1l-281.9,103c5.5,15.2,26.6,22.7,56.1,22.7c28.8,0,65.7-7.1,104.1-21.2
	C525.5,428.3,580.2,382.2,569.3,352.1"/>
<path class="zeplin_st0" d="M513.2,329.4c-28.8,0-65.7,7.1-104.1,21.2c-77.9,28.4-132.6,74.5-121.7,104.5l281.9-103
	C563.8,336.9,542.8,329.4,513.2,329.4"/>
<g>
	<path class="zeplin_st0" d="M497.6,516.8c-8.3,0-20.5-7.5-36.4-22.3c-18.7-17.5-40.2-43.1-60.4-72.1c-20.2-29-36.9-58-46.8-81.7
		c-10.8-25.8-12.4-41.6-4.6-47.1c1.8-1.2,3.9-1.9,6.1-1.8c6.3,0,18.7,4.7,41.6,27.2l0.5,0.5l-0.1,0.7c-0.2,1.6-0.3,3.2-0.4,4.9
		l-0.3,3.2l-2.2-2.3c-24.6-24.8-35.5-27.5-39-27.5c-1,0-1.8,0.2-2.4,0.6c-3.4,2.4-3.6,14,6.9,39c9.8,23.2,26.2,51.8,46.1,80.4
		c20,28.6,41.1,53.9,59.5,71c19.8,18.5,28.8,20.5,31.7,20.5c1,0,1.8-0.2,2.4-0.6c3.6-2.5,3.6-15-8.2-41.9l-0.5-1.2l1.2-0.6
		c1.2-0.6,2.3-1.3,3.4-1.9l1.4-0.8l0.7,1.5c8.3,19.1,16.1,43.3,5.9,50.5C502,516.2,499.8,516.8,497.6,516.8L497.6,516.8z
		 M497.6,513.8v1.5V513.8z"/>
	<path class="zeplin_st0" d="M459.1,482.4l-0.1,1.5c-2,24.4-7.2,53.6-20.7,54.8c-0.3,0-0.6,0-0.8,0c-9.2,0-17.9-13.2-25.8-39.1
		c-7.5-24.5-13.4-57.5-16.4-92.8c-3.1-35.3-3-68.7,0.1-94.2c3.4-27.8,10-42.3,19.5-43.1c0.3,0,0.6,0,0.9,0c6.7,0,16.7,7.5,27,42.7
		l-6.7,1.3c-3.4-11.7-7.2-21.3-10.9-27.9c-3.4-6.1-6.8-9.4-9.4-9.4c-0.1,0-0.2,0-0.3,0c-4.1,0.4-10.1,10.3-13.4,37.3
		c-3.1,25-3.1,58-0.1,92.8c3,34.8,8.8,67.3,16.2,91.4c3.3,10.8,6.9,19.7,10.5,25.7c3.3,5.6,6.5,8.6,8.9,8.6c0.1,0,0.2,0,0.3,0
		c3.9-0.3,11.4-10.7,14.5-47.2L459.1,482.4z"/>
</g>
</svg>
